<?xml version="1.0" encoding="UTF-8" standalone="no"?>
<!-- Generator: Adobe Illustrator 25.4.1, SVG Export Plug-In . SVG Version: 6.00 Build 0)  -->

<svg
   version="1.0"
   id="Layer_1"
   x="0px"
   y="0px"
   viewBox="0 0 513.17834 699.99999"
   enable-background="new 0 0 341 465.1"
   xml:space="preserve"
   sodipodi:docname="Logo EÌquipe Mexique Football - 2021.svg"
   width="513.17834"
   height="700"
   inkscape:version="1.1.1 (c3084ef, 2021-09-22)"
   xmlns:inkscape="http://www.inkscape.org/namespaces/inkscape"
   xmlns:sodipodi="http://sodipodi.sourceforge.net/DTD/sodipodi-0.dtd"
   xmlns="http://www.w3.org/2000/svg"
   xmlns:svg="http://www.w3.org/2000/svg"><defs
   id="defs931" /><sodipodi:namedview
   id="namedview929"
   pagecolor="#ffffff"
   bordercolor="#666666"
   borderopacity="1.0"
   inkscape:pageshadow="2"
   inkscape:pageopacity="0.0"
   inkscape:pagecheckerboard="0"
   showgrid="false"
   inkscape:zoom="1.1954418"
   inkscape:cx="170.22995"
   inkscape:cy="232.55"
   inkscape:window-width="1440"
   inkscape:window-height="900"
   inkscape:window-x="0"
   inkscape:window-y="0"
   inkscape:window-maximized="0"
   inkscape:current-layer="Layer_1" />
<g
   id="g3153"
   transform="matrix(1.5050527,0,0,1.5050527,0.04032521,0)"><path
     d="M 15.5,376.6 H 33.1 V 358 H 45.2 C 16.3,325.2 0.7,287.8 0,244.9 -0.7,202 12.3,163.3 40.9,131.4 94.6,71.6 160.6,58.1 236.3,83.6 251.6,58.6 256.6,30.7 254.9,0 c 15.4,17.1 30.2,33 40.7,52.8 -1,3.9 -2.1,8 -3.2,12.3 5.2,11.3 9.8,22.9 13,35.3 -1,1.7 -2,3.6 -3.2,5.8 2,10.1 3.4,20.4 3.9,30.9 0.1,1.6 0.9,2.8 1.8,4 47.9,65.2 43,154.4 -10,214.2 -0.5,0.6 -1,1.2 -2,2.6 h 11.9 v 18.7 h 17.7 v 88.5 h -310 z"
     id="path824"
     style="fill:#3a544c;fill-opacity:1" /><path
     d="m 136.1,352.1 c -14.9,-4.7 -28.2,-12.2 -40.2,-22 -10.5,6.1 -31.4,17.4 -31.6,17.1 6,-10.3 12,-20.6 18,-30.9 C 70.2,301.6 62,285.4 57.9,267.2 c -0.2,-0.8 -0.3,-1.9 -0.9,-2.3 -5.4,-3.7 -5.6,-8.4 -2.3,-13.8 -11.9,-3.1 -34.5,-9.7 -34.4,-9.9 11.5,-3 22.9,-6 34.5,-9.1 -3.3,-6.7 -3.2,-8.4 1.5,-12.9 1.3,-1.3 1.6,-2.8 2,-4.4 4,-16.6 11.3,-31.6 21.9,-45 0.8,-1 2,-1.8 1.9,-3.4 -5.8,-10 -16.9,-30.7 -16.6,-31 L 96,153.2 c 15.1,-12.5 32.1,-20.9 51,-24.9 4.9,-5.7 7,-6.1 14.2,-2.9 3,-11.2 9.5,-33.3 9.8,-33.3 2.9,11.1 5.8,22.1 8.9,33.9 3.4,-3.4 7.1,-2.7 10.8,-2 16,-8.3 29.8,-19.1 40.7,-33.8 -57.9,-24 -136.6,-13.3 -187,47.7 -23.6,28.6 -36.2,61.6 -37.2,98.7 -0.3,12.7 0.4,34.6 9,59.8 11.9,34.6 32.3,57.2 44.3,68.6 -6.7,0 -13.5,0 -20.2,0 v 18.9 H 22.5 V 458 H 318.2 V 383.8 H 300.6 V 365 h -22.3 c 31.4,-29.1 49.5,-63.6 54.6,-105 4.6,-37.6 -12,-100.2 -31,-113.2 -0.6,12.6 -1.6,24.8 -4.7,36.5 -1.9,1.2 -3.6,2.3 -5.3,3.4 -2.4,9.3 -5.8,18.2 -9,25.7 -1,5.5 3,7.1 4.6,10 2,3.5 -0.1,6.6 -1.2,9.9 11.6,3.1 22.9,6 34.1,9 0,0.5 0,0.4 0,0.9 -11.4,3 -22.8,6 -34.2,9 2.6,6.1 3,8.8 0.1,11.3 -2.9,2.4 -3.5,5.4 -4.4,8.6 -2,7.6 -4.7,14.9 -8.2,22 -4.1,8.4 -9.4,16.1 -15.3,23.4 6.1,10.5 12.1,20.7 18.1,31 -0.3,0.3 -21.3,-11.2 -31.8,-17.4 -12,10.1 -25.6,17.4 -40.2,22.2 -1.6,22.4 -14.8,36.4 -33.8,36.6 -19.2,0.1 -32.5,-13.8 -34.6,-36.8 z"
     id="path1296"
     style="fill:#ffffff" /><path
     d="m 83.4,153.7 c -0.2,-0.5 -0.5,-0.9 -1,-0.3 0.1,0.3 0.2,0.6 0.4,0.9 2.6,4.8 5.3,9.5 7.9,14.3 -17.5,19.6 -26.6,42.3 -28.3,68.2 -5.7,1.5 -16.5,5 -16.5,5.3 5.5,1.5 11,3 16.6,4.5 1.6,26.2 11,48.9 28.2,68.1 -2.7,4.8 -5.1,9.3 -7.6,13.8 -0.2,0.4 -0.4,0.7 -0.9,1.5 0.9,-0.3 10.9,-5.8 15.5,-8.4 13.9,12.6 29.8,20.8 47.5,25.4 -3.5,19.8 9.4,35.6 28.4,33.6 4.5,-0.5 8.7,-2.3 12.3,-5 9.6,-7.6 12,-17.5 9.7,-28.7 18.2,-4.6 33.9,-13 47.6,-25.3 5,2.9 14.8,8.2 15.1,8 -2.8,-4.8 -5.3,-9.9 -8.2,-14.8 17.5,-19.5 26.7,-42.2 28.3,-68.2 5.7,-1.6 11.1,-3.1 17.9,-5 -6.9,-1.9 -12.4,-3.3 -17.9,-4.8 -0.6,-8.3 -1.9,-16.1 -3.7,-23.6 5.2,-10.5 8.8,-21.2 11.6,-32.2 1.7,-1 3.3,-1.9 4.8,-2.8 3,-11.7 3.5,-23.5 4,-35.2 1.5,-1.2 2.7,-2.3 4,-3.4 -0.3,-12.2 -1.9,-24.1 -4.7,-35.6 1.1,-1.8 2.1,-3.3 3.1,-4.9 -3,-12.1 -7.6,-23.4 -13,-34.2 0.9,-4.4 2.9,-8.2 2.9,-12.5 -7,-12.1 -15.2,-23 -25.6,-33.8 -0.2,4.3 -0.2,7.2 -0.5,10.2 -4.7,47.4 -27.8,82.1 -70.9,103.1 -5.2,2.5 -10.2,1.9 -15.2,1.2 -2.1,-4.8 -2.1,-10 -5.1,-15.4 -1.6,5.8 -3,10.7 -4.4,15.6 -26.1,1.5 -48.7,11 -68,28.1 z"
     id="path1294"
     style="fill:#ffffff" /></g><g
   id="g1110"
   transform="matrix(1.5050527,0,0,1.5050527,0.04032521,0)"><path
     fill="#f33946"
     d="m 292.4,307.4 c 3.8,0.7 6.7,1.2 10.1,1.9 -6.3,12.5 -14.4,23.4 -23.9,33.7 -4.6,-7.1 0,0 -4.6,-7.1 5.1,-6.2 10.5,-12.3 14.7,-19.5 -9.7,-2.5 0,0 -9.7,-2.5 9.2,-14.6 16,-30 19.4,-46.9 8.7,5 0,0 8.7,5 2.4,-7.5 2.4,-15.4 3.6,-23.2 8.1,-2.2 0,0 8.1,-2.2 0,13.8 -2.6,26.7 -6.6,39.6 -8.6,-5 0,0 -8.6,-5 -3,8.7 -6.4,17.4 -11.2,26.2 z"
     id="path830" /><path
     fill="#0a9841"
     d="m 51.6,167.1 c 3.7,0.6 6.6,1.1 10.3,1.8 -9.3,14.8 -15.8,30.3 -19.3,47.5 -3.1,-2.1 -5.6,-3.8 -8.5,-5.8 -2.4,8 -2.6,15.9 -3.6,24.2 -2.8,0.6 -5.7,1.3 -8.5,1.9 0.3,-5.3 0.8,-11.1 1.8,-17.3 1.3,-8.5 3.2,-16 5.2,-22.6 1.5,0.8 5.7,3.2 8.4,5 1.7,-4.5 3.2,-8.9 4.9,-13.2 1.7,-4.3 3.7,-8.5 5.8,-13.2 -3.3,-0.6 -6.3,-1.2 -9.7,-1.8 6.3,-12.7 14.2,-23.7 24,-34.2 1.6,2.7 2.9,4.9 4.4,7.4 -5.3,6.5 -10.6,12.6 -15.2,20.3 z"
     id="path832" /><path
     fill="#0a9841"
     d="m 97.2,133.6 c -0.7,-3.9 -1.2,-6.8 -1.8,-10.2 -7.2,3.9 -12.9,9.2 -19.2,14.1 -2.3,-1.4 -4.6,-2.7 -7.4,-4.3 10,-9.4 20.7,-17.1 33,-23.5 0.6,3.4 1.2,6.4 1.9,10 8.5,-4.4 17,-8.1 26.3,-11.1 -2.1,-2.9 -3.8,-5.4 -5.9,-8.3 13.6,-4.7 27.3,-6.8 41.5,-7.5 -0.3,1.4 -0.6,2.9 -0.9,4.3 -0.3,1.4 -0.6,2.7 -0.8,4 -8.4,0.8 -16.9,1.5 -25.6,3.9 1.9,2.8 3.7,5.3 5.8,8.4 -16.8,4.1 -32.2,10.4 -46.9,20.2 z"
     id="path834" /><path
     fill="#0a9841"
     d="m 67.1,335.6 c -1.4,2.4 -2.7,4.6 -4,6.7 -6.4,-4.3 -20.3,-23.6 -23.9,-33.1 3,-0.6 6,-1.2 9.4,-1.8 -4.2,-8.6 -8,-17.1 -10.8,-26.1 -3.5,0.6 -5.1,3.8 -8.6,5 -4.3,-12.8 -6.5,-25.9 -6.9,-39.4 8.3,1.8 5.5,0.9 8.3,1.8 0.9,7.8 1.4,15.5 3.5,23.8 2.9,-2.1 5.4,-3.8 8.5,-5.9 3.8,17.1 10.1,32.7 19.5,46.9 -3.1,2.2 -6.7,0.8 -9.6,2.8 3.9,6.8 9.2,12.8 14.6,19.3 z"
     id="path836" /><path
     fill="#f33946"
     d="m 252.1,355.9 c 4,-3.2 8.3,-6.6 12.8,-10.2 2.3,1.4 4.6,2.7 7.4,4.4 -3.7,3.3 -7,6.2 -10.5,9.2 0,4.6 0,9.3 0,14.8 9.9,0 19.6,0 29.2,0 0.3,9.3 0,0 0.3,9.3 -13,0 -25.9,0 -39.1,0 -0.1,-9 -0.1,-18 -0.1,-27.5 z"
     id="path842" /><path
     fill="#0a9841"
     d="m 79.4,374.5 c 0,-5.5 0,-10.3 0,-15.3 -3.3,-2.9 -6.7,-5.8 -10.3,-8.9 1,-0.9 6,-4.2 7,-4.7 4.4,3.5 8.8,7 13.1,10.4 0,9.1 0,18.1 0,27.4 -13.2,0 -26.2,0 -39.6,0 0,-2.8 0,-5.5 0,-9 9.9,0.1 19.8,0.1 29.8,0.1 z"
     id="path844" /><path
     fill="#f33946"
     d="m 304.1,202 c 2.6,-1.8 5,-3.5 8,-5.6 4.6,13.2 6.9,40.2 6.9,40.2 0,0 0,0 -8.2,-1.7 -0.8,-8 -1.2,-16.1 -3.7,-24.3 -2.8,1.9 -5.2,3.6 -8.1,5.6 -2.2,-7.5 -4.5,-15 -6.7,-22.5 0.3,-1.4 0.6,-2.8 0.9,-4.2 1.5,-0.7 3.1,-1.5 4.6,-2.2 4.2,9.3 3.9,9.7 6.3,14.7 z"
     id="path848" /><path
     fill="#f33946"
     d="m 217.5,100.3 c -5.7,6.8 -17.9,13.9 -17.9,13.9 0,0 0,0 -2.4,-0.9 1.8,-2.6 3.5,-5.1 5.6,-8.1 -8.6,-2.4 -16.9,-3.2 -25.4,-3.7 -0.4,-1.4 -0.8,-2.8 -1.2,-4.3 -0.3,-1.4 -0.6,-2.8 -0.9,-4.1 14.5,0.2 28.3,2.9 42.2,7.2 z"
     id="path852" /></g><g
   id="g5509"
   transform="matrix(1.5050527,0,0,1.5050527,0.04032521,0)"><path
     fill="#3a544c"
     d="m 59.7,428.6 c 5.7,-10.8 11,-20.6 16.2,-30.4 3.9,0 7.5,0 11.5,0 0,16.4 0,32.8 0,49.3 -1.8,0 -9.5,0 -11.5,0 -0.1,-3.6 -0.2,-7.3 -0.3,-11 0,-3.7 0,-7.3 0,-10.8 -4.1,7.3 -8.2,14.5 -12.2,21.8 -2.4,0 -4.9,0 -7.6,0 -3.7,-7 -11.8,-21.2 -12.1,-21.1 0,6.9 0,13.7 0,20.7 -1.5,0 -4.5,0 -6,0 -1.5,0 -4.5,0 -5.9,0 0,-16.4 0,-32.8 0,-49.2 1.8,0 3.7,-0.1 5.6,0 2,0 4,0.1 5.9,0.2 5.3,9.9 10.6,19.8 16.4,30.5 z m -20.3,14.3 c 0,-11.2 0,-22.4 0,-33.6 2.5,4.2 5,8.6 7.5,13 4.2,7.3 8.1,14.6 11.9,21.7 0.5,0 1,0 1.5,0 6.4,-11.5 12.9,-23.1 19.3,-34.6 0.2,11.2 0.3,22.4 0.5,33.7 1.1,0 2.1,0 3.2,0 0,-13.4 0,-26.8 0,-40.5 -0.7,0 -1.4,0 -2.1,0 -1,0 -1.9,0.1 -2.8,0.2 -6.2,11.9 -12.4,23.8 -18.7,35.7 -6.3,-12.1 -12.7,-24.1 -19,-36.2 -0.8,0 -1.6,0 -2.4,0 -0.8,0 -1.6,0 -2.4,0.1 0,13.5 0.1,27 0.1,40.6 0.6,0 1.2,0 1.7,0 0.5,-0.1 1.1,-0.1 1.7,-0.1 z"
     id="path826" /><path
     fill="#3a544c"
     d="m 105.6,409.9 c 0,2.5 0,4.3 0,6.7 8.8,0 17.6,0 26.6,0 0,4.1 0,7.7 0,11.9 -8.8,0 -17.5,0 -26.5,0 0,2.7 0,4.8 0,7.4 9.6,0 19,0 28.7,0 0,4.1 0,7.7 0,11.6 -13.5,0 -27.1,0 -40.8,0 0,-16.4 0,-32.6 0,-49.1 13.5,0 26.7,0 40.3,0 0,3.8 0,7.3 0,11.6 -9.5,-0.1 -18.9,-0.1 -28.3,-0.1 z m -7.8,-7.6 v 41.1 H 130 c 0,-0.6 -0.1,-1.1 -0.1,-1.7 0,-0.6 0,-1.1 0,-1.6 -9.5,0 -19,0 -28.4,-0.1 v -16 h 27.6 c 0,-1 0.1,-1.9 0.1,-2.9 -4.6,-0.1 -9.2,-0.2 -13.8,-0.2 -4.7,-0.1 -9.3,-0.1 -13.9,-0.1 v -15.2 c 9.2,0 18.4,0 27.6,0 0,-1.1 0,-2.2 0,-3.4 -2.3,0 -13.3,0 -15.6,0 -2.3,0.1 -13.3,0.1 -15.7,0.1 z"
     id="path828" /><path
     fill="#3a544c"
     d="m 247,427.2 c 3,2 6,3.9 9,5.9 -4.3,11.1 -15.4,17.1 -27.5,15 -12.7,-2.2 -21.1,-12 -21.3,-24.6 -0.2,-12.6 7.7,-22.8 19.6,-25.5 12.7,-2.9 24.2,2.8 29.2,14.6 -3,2 -6,3.9 -9,5.9 -9,-10.3 -16.9,-12.2 -23.6,-5.6 -5.6,5.4 -5.5,14.9 0.1,20.2 6.8,6.4 14.9,4.5 23.5,-5.9 z m 3.5,-16 c -5.9,-8.7 -15.2,-11.7 -24.8,-8.4 -9.2,3.1 -14.8,11.5 -14.3,21.6 0.5,9.3 7.1,17.1 16.1,19.2 9.7,2.3 18.5,-1.2 22.7,-9 -0.7,-0.5 -1.4,-1 -2.1,-1.5 -0.6,0.9 -1.5,2 -2.7,3.1 -0.5,0.5 -2.5,2.2 -5.2,3.4 -4.7,2 -10.2,1.9 -15.2,-0.5 -6.7,-3.3 -10.3,-10 -9.7,-18.1 0.6,-7.5 5.6,-13.5 12.9,-15.4 8.2,-2.2 14.7,0.5 19.9,7.1 0.7,-0.5 1.4,-0.9 2.4,-1.5 z"
     id="path838" /><path
     fill="#3a544c"
     d="m 139,398.1 c 5.5,0 9.8,0 14.6,0 3,4.3 6.1,8.8 9.5,13.8 3.3,-4.8 6.4,-9.2 9.5,-13.7 4.6,0 9,0 14.3,0 -5.7,8.3 -11,16.1 -16.5,24.1 5.7,8.3 11.3,16.4 17.4,25.2 -5.3,0 -9.9,0 -14.8,0 -3.1,-4.5 -6.4,-9.3 -10,-14.6 -3.6,5.3 -6.9,10 -10.1,14.6 -4.7,0 -9.1,0 -14.5,0 6,-8.6 11.5,-16.6 17.2,-25 -5.3,-7.9 -10.7,-15.8 -16.6,-24.4 z m 24.3,27.6 c 8.1,11.5 12.5,17.8 12.5,17.8 v 0 c 0,0 0.1,0 4.2,-0.1 -4.9,-7 -9.8,-14 -14.7,-21.1 5,-6.8 10,-13.7 14.9,-20.5 -1.3,0.1 -2.7,0.1 -4,0.2 -4.5,5.8 -8.9,11.5 -13.4,17.3 -6.5,-8.8 -12.5,-16.9 -12.5,-16.9 0,0 -1.2,0 -3.5,0 4.7,6.7 9.3,13.4 14,20.2 -5,6.9 -9.9,13.8 -14.9,20.8 1.4,0 2.8,0 4.2,0.1 v 0 c 4.4,-6.1 8.8,-11.9 13.2,-17.8 z"
     id="path840" /><path
     id="path846"
     d="m 284.09961,397.5 c -14.2,0 -25.4,11.10078 -25.5,25.30078 -0.1,14.2 11.39961,25.79883 25.59961,25.79883 14.1,0 25.30039,-11.20039 25.40039,-25.40039 0.1,-14.6 -11.1,-25.79922 -25.5,-25.69922 z m 0.40039,4.09961 c 11.8,0.2 21.00039,9.6 20.90039,21.5 -0.1,11.9 -9.50078,21.1 -21.30078,21 -11.9,0 -21.19922,-9.39922 -21.19922,-21.19922 0,-12.1 9.49961,-21.40078 21.59961,-21.30078 z m -0.40039,3.30078 c -9.8,0 -17.49961,7.80039 -17.59961,17.90039 -0.1,10.2 7.70078,18.19961 17.80078,18.09961 9.9,-0.1 17.29883,-7.89961 17.29883,-18.09961 -0.1,-10.1 -7.7,-17.90039 -17.5,-17.90039 z m 0.20117,4.29883 c 7.5,0.1 13.29961,6.30117 13.09961,14.20117 -0.2,7.5 -6.00078,13.40039 -13.30078,13.40039 -7.5,0 -13.29883,-6.10039 -13.29883,-13.90039 0.1,-7.8 5.9,-13.80117 13.5,-13.70117 z"
     style="fill:#3a544c;fill-opacity:1" /><path
     fill="#3a544c"
     d="m 202.8,447.6 c -4.1,0 -7.7,0 -11.7,0 0,-16.5 0,-32.8 0,-49.4 4,0 7.7,0 11.7,0 0,16.5 0,32.7 0,49.4 z m -4.3,-4.7 c 0,-13.2 0,-26.5 0,-39.7 -0.5,0 -1.1,-0.1 -1.7,-0.1 -0.6,0 -1.1,0 -1.7,0 0,14.3 0.1,39.8 0.1,39.8 v 0 c 0,0 1.1,0 3.3,0 z"
     id="path850" /><path
     fill="#3a544c"
     d="m 103.4,394.3 c -0.6,-4 -1,-7.5 -1.6,-11.5 8.1,-1.2 15.8,-2.3 23.8,-3.4 0.3,1.9 0.5,3.8 0.8,5.8 0.3,1.9 0.5,3.8 0.8,5.7 -7.9,1.2 -15.5,2.3 -23.8,3.4 z m 18.2,-10.2 c -5,0.7 -9.9,1.4 -14.5,2.1 0,0.6 0.1,1.1 0.2,1.8 0.1,0.6 0.2,1.2 0.4,1.8 4.8,-0.7 9.8,-1.5 14.7,-2.2 -0.8,-3.5 -0.1,0 -0.8,-3.5 z"
     id="path854" /></g><g
   id="g1100"
   transform="matrix(1.5050527,0,0,1.5050527,0.04032521,0)"><path
     fill="#3a544c"
     d="m 129,153.3 c -1.8,5.1 -3.4,9.2 -5,13.8 7.7,7 17,8.4 26.5,8.6 7,-4.7 11.5,-10.9 14.7,-18.3 3.1,-7.1 4,-14.7 5.2,-23.3 1.5,3.1 2.5,5.3 3.7,7.7 4.6,-1.5 9,-3 14,-4.6 1.9,17.7 -3,32.8 -14.4,45.8 -11.4,13 -26.2,19.5 -44.1,20.4 9.4,29.7 26.1,52.9 51.6,69.4 0.5,0 0.9,0.2 1.2,0 8.7,-4.1 17.3,-2.5 26.1,0.1 15.5,4.6 49.1,13 50,14.4 -4,8.3 -9.7,15.6 -16.2,22.7 1,2.5 2.1,5 3.1,7.6 -35.6,-18.2 -63.6,-32.5 -82.8,-42.1 -2,-1 -7.4,-3.8 -14,-8.6 -21.7,-15.6 -34.2,-35.6 -29.9,-63.6 -4.8,-2.8 -9.6,-5.4 -14.2,-8.4 C 100,192 96,188.5 92.8,184.2 96.2,176 116.3,158.6 129,153.3 Z"
     id="path856" /><path
     fill="#3a544c"
     d="m 265.1,27.2 c 7.9,8.8 13.8,17.1 19.2,26.2 -8.3,32.1 -26,57.3 -54.3,75.9 -1.4,-5.9 -2.7,-11.3 -4.1,-17 23.5,-22.8 36.7,-50.8 39.2,-85.1 z"
     id="path858" /><path
     fill="#3a544c"
     d="m 231.3,150.5 c 0,-6.5 0,-12 0,-17.8 23.7,-15 40.9,-35.9 51.5,-63.2 5,9.6 8.4,19 11.1,28.8 -14.9,24.1 -35.2,41.7 -62.6,52.2 z"
     id="path860" /><path
     fill="#3a544c"
     d="m 291.8,107.7 c 2.2,10.9 3.7,20.4 3.7,30.2 -18.9,18.1 -41,29.6 -67.6,33.6 1.1,-6 2,-11.3 3.1,-17.2 24.5,-9 44.8,-24.2 60.8,-46.6 z"
     id="path862" /><path
     fill="#3a544c"
     d="m 219.9,191.3 c 2.3,-5.5 4.5,-10.5 6.8,-15.9 23.8,-3.4 45.2,-12.8 64.6,-29 0.1,10.6 -1.3,20.1 -3.1,29.2 -20.7,12 -48.7,18.5 -68.3,15.7 z"
     id="path864" /><path
     fill="#3a544c"
     d="m 205.2,212.4 c 19.4,5.6 38.9,6.7 59.7,2.8 -3.6,7.4 -7.7,13.3 -12.2,19.7 8.2,2.2 16.3,4.4 24.5,6.6 -6.2,1.4 -12.3,2.9 -18.5,4.3 -15.2,-3.9 -27.8,-7.2 -38.4,-9.7 -6.1,-1.5 -14.9,-5.1 -26.3,-10.4 -0.6,-0.3 -1.1,-0.7 -1.9,-1.2 4.4,-4.1 8.5,-7.9 13.1,-12.1 z"
     id="path866" /><path
     fill="#3a544c"
     d="m 272.5,210 c -21.8,5.1 -43,5.6 -64.7,-0.7 3.4,-4.9 6.6,-9.5 10,-14.4 21.9,1.5 43.1,-2.3 64.2,-12.2 -2.2,10.3 -5.6,18.7 -9.5,27.3 z"
     id="path868" /><path
     fill="#3a544c"
     d="m 252.1,248.4 c -11.7,3.5 -23.3,7 -35,10.5 C 201.2,254 187,246.5 174,235.6 c 5.1,-3 9.7,-5.8 14.8,-8.8 9.8,5.1 20.3,9.2 31,12.6 10.6,3.5 21.4,6 32.3,9 z"
     id="path870" /><path
     fill="#3a544c"
     d="m 200.1,131.1 c 8.7,38.7 -20.4,80.1 -62,84.5 -1.9,-2.4 -2.5,-5.5 -3.7,-8.9 17.8,-2.3 32.7,-9.7 43.8,-23.6 11.2,-13.9 15.5,-29.9 13.4,-47.8 2.7,-1.4 5.4,-2.7 8.5,-4.2 z"
     id="path872" /><path
     fill="#3a544c"
     d="m 153.7,243.1 c 5.8,-2 10.9,-3.8 16.7,-5.7 11.6,9.7 24.8,17.6 40.9,23.3 -10.4,3.1 -19.6,5.9 -29,8.7 -10.8,-7.1 -20.3,-15.5 -28.6,-26.3 z"
     id="path874" /><path
     fill="#3a544c"
     d="m 164.4,280.5 c 6.2,3.2 11.9,6.2 17.7,9.1 0,6.6 0,13.1 0,19.5 -8.2,2 -16.8,-3.8 -17.6,-12.1 -0.5,-5.2 -0.1,-10.5 -0.1,-16.5 z"
     id="path876" /><path
     fill="#3a544c"
     d="m 139.3,219.2 c 4.3,-0.9 8,-1.7 12.1,-2.6 4.6,6.2 9.8,12 15.7,17.6 -5.1,3 -10.3,3.9 -15.6,5.5 -4.8,-6.3 -8.7,-12.9 -12.2,-20.5 z"
     id="path878" /><path
     fill="#3a544c"
     d="m 199.9,172.5 c 1.2,-4.1 2.3,-7.7 3.5,-11.7 7.7,-1.5 15.5,-2.5 23.4,-5.3 0.1,6 -1.7,11.1 -3,16.6 -7.9,1 -15.6,0.9 -23.9,0.4 z"
     id="path880" /><path
     fill="#3a544c"
     d="m 227.4,151.8 c -7.7,2.6 -15,4.2 -23.1,5.2 0.4,-4.3 0.7,-8 1.1,-12.1 7.3,-2.8 14.6,-5.9 21.8,-9.8 1.1,5.8 0.9,11.1 0.2,16.7 z"
     id="path882" /><path
     fill="#3a544c"
     d="m 182,198.8 c 2.9,-3.3 5.4,-6.1 8.1,-9.2 7.5,2.1 15.1,3.8 23.2,5 -2.4,5.4 -6.1,9.3 -9.5,13.5 -7.7,-2.1 -14.5,-5.4 -21.8,-9.3 z"
     id="path884" /><path
     fill="#3a544c"
     d="m 223.2,114.7 c 2.1,5.7 3.3,10.8 3.6,16.4 -6.7,4 -13.6,7.3 -21.5,9.7 -0.5,-4.1 -0.9,-7.9 -1.5,-12.1 6.7,-3.9 13,-8.5 19.4,-14 z"
     id="path886" /><path
     fill="#3a544c"
     d="m 179.1,201.3 c 7.1,3.8 14.1,7 21.7,9.7 -3.5,4.7 -7.8,7.7 -12.1,11.4 -6.9,-3.9 -13.2,-8.4 -19.3,-13.8 3.3,-2.5 6.3,-4.7 9.7,-7.3 z"
     id="path888" /><path
     fill="#3a544c"
     d="m 222.4,175.8 c -1.6,5.7 -3.9,10.4 -6.6,15.3 -7.9,-0.3 -15.4,-2.1 -23.3,-4.5 2,-3.7 3.9,-7 5.9,-10.7 7.9,0.7 15.7,0.7 24,-0.1 z"
     id="path890" /><path
     fill="#3a544c"
     d="m 166,210.4 c 6,5.2 12.1,9.7 19.2,14.1 -4.6,3.6 -9.3,6 -14.4,8.5 -5.8,-5.3 -11.1,-10.9 -15.8,-17.5 3.8,-1.8 7.2,-3.3 11,-5.1 z"
     id="path892" /><path
     fill="#3a544c"
     d="m 135.9,288.6 c -8.4,-9.2 -7.7,-18.2 2,-25.5 2.3,1.8 4.7,3.7 7,5.5 2.2,1.7 4.5,3.2 5.8,4.1 -5,5.4 -9.9,10.6 -14.8,15.9 z"
     id="path894" /><path
     fill="#3a544c"
     d="M 122.5,311.7 C 121,295 113.9,287.9 97.4,286.2 c 6.1,-5.3 16.3,-4.7 22.8,1.4 6.9,6.4 7.9,16.4 2.3,24.1 z"
     id="path896" /><path
     fill="#3a544c"
     d="m 188.2,336 c -11.5,-10.9 -22.4,-11.1 -36.2,0 1.4,-6.6 4.6,-10.8 9.9,-13.5 6.4,-3.3 13,-3 18.9,1.1 4.3,2.8 7.9,6.5 7.4,12.4 z"
     id="path898" /><path
     fill="#3a544c"
     d="m 85.9,205.5 c -4.3,-6.5 -3.4,-10 4.2,-18.3 3.8,3.4 7.6,6.9 11.9,10.9 -6.4,0.7 -11.6,3 -16.1,7.4 z"
     id="path900" /><path
     fill="#3a544c"
     d="m 133.5,291.5 c -0.8,0.7 -1.6,1.4 -2.4,2.1 -0.8,0.7 -1.5,1.4 -2.1,2.1 -1.2,-2.5 -2.4,-5 -3.7,-7.6 0.4,-0.5 0.9,-1 1.3,-1.5 0.6,-0.6 1.1,-1.3 1.6,-1.9 1.7,2.2 3.4,4.4 5.3,6.8 z"
     id="path914" /><path
     fill="#3a544c"
     d="m 182.1,313.8 c -0.3,6 0,0 -0.3,6 -2.6,-0.9 -5.2,-1.8 -7.9,-2.8 -0.1,-4.5 0,0 -0.1,-4.5 2.7,0.5 5.4,0.9 8.3,1.3 z"
     id="path916" /><path
     fill="#3a544c"
     d="m 96.5,281.8 c -2.3,-0.8 -4.3,-1.5 -7.3,-2.5 4.9,-1.8 8.8,-1.9 13.2,-0.1 -2.1,0.9 -3.8,1.7 -5.9,2.6 z"
     id="path918" /><path
     fill="#3a544c"
     d="m 150.8,328.2 c -0.6,1.5 -1.1,3 -1.8,4.7 -1.7,0.8 -5.6,1.9 -5.8,1.7 1.3,-3.3 7.4,-6.6 7.6,-6.4 z"
     id="path920" /></g><g
   id="g1071"
   transform="matrix(1.5050527,0,0,1.5050527,0.04032521,0)"><path
     fill="#3a544c"
     d="m 177.9,352 c -1.1,3.2 -2,6 -2.9,8.7 -3.1,0.6 -5.9,0.5 -9.1,0 -0.9,-2.7 -1.9,-5.5 -2.9,-8.6 2.5,-1.8 4.9,-3.5 7.4,-5.4 2.5,1.8 4.8,3.4 7.5,5.3 z"
     id="path902" /><path
     fill="#3a544c"
     d="m 154.1,341.3 c 0.9,3.5 1.6,6 2.2,8.6 -1.5,2.6 -3.5,4.7 -6.4,7.2 -0.8,-6 0.5,-10.7 4.2,-15.8 z"
     id="path904" /><path
     fill="#3a544c"
     d="m 178.7,335 c -3.2,1.7 -5.5,3 -7.8,4.3 -2.9,-0.9 -5.4,-2.3 -8.1,-4.3 5.2,-2.5 10.1,-2.4 15.9,0 z"
     id="path906" /><path
     fill="#3a544c"
     d="m 186.9,341.5 c 3.7,4.9 4.7,9.6 4.1,16.1 -2.6,-2.8 -4.4,-4.8 -6.3,-6.9 0.2,-3.1 1.1,-5.9 2.2,-9.2 z"
     id="path908" /><path
     fill="#3a544c"
     d="m 167.5,374.5 c -6,-1.2 -10.2,-3.5 -13.6,-8.4 3.1,0 5.6,0 8.2,0 2.5,2.1 3.5,5 5.4,8.4 z"
     id="path910" /><path
     fill="#3a544c"
     d="m 178.1,366.2 c 2.8,-0.2 5.4,-0.3 9.4,-0.6 -3.8,5.2 -7.9,7.6 -14.2,8.8 1.8,-3.2 3.3,-5.6 4.8,-8.2 z"
     id="path912" /><path
     fill="#3a544c"
     d="m 188.1,336 c 0.1,0 0.2,-0.1 0.3,-0.1 0,0 -0.1,0 -0.3,0.1 z"
     id="path922" /></g>
</svg>
